<svg xmlns="http://www.w3.org/2000/svg" viewBox="0 0 44 16" width="352" height="128" fill="#94e2d5">
  <!-- Generated from logo.txt by ./ascii-to-svg. Do not edit by hand. -->
  <rect x="0" y="0" width="3" height="2"/>
  <rect x="3" y="1" width="4" height="1"/>
  <rect x="10" y="0" width="8" height="2"/>
  <rect x="18" y="1" width="1" height="1"/>
  <rect x="22" y="1" width="1" height="1"/>
  <rect x="23" y="0" width="6" height="2"/>
  <rect x="29" y="1" width="1" height="1"/>
  <rect x="35" y="1" width="1" height="1"/>
  <rect x="36" y="0" width="8" height="2"/>
  <rect x="0" y="2" width="3" height="2"/>
  <rect x="3" y="2" width="3" height="1"/>
  <rect x="6" y="2" width="2" height="2"/>
  <rect x="8" y="3" width="1" height="1"/>
  <rect x="10" y="2" width="3" height="2"/>
  <rect x="16" y="2" width="1" height="1"/>
  <rect x="17" y="2" width="3" height="2"/>
  <rect x="21" y="2" width="3" height="2"/>
  <rect x="28" y="2" width="3" height="2"/>
  <rect x="34" y="2" width="3" height="2"/>
  <rect x="41" y="2" width="3" height="2"/>
  <rect x="0" y="4" width="3" height="2"/>
  <rect x="6" y="4" width="3" height="2"/>
  <rect x="10" y="4" width="3" height="2"/>
  <rect x="17" y="4" width="3" height="2"/>
  <rect x="21" y="4" width="3" height="2"/>
  <rect x="28" y="4" width="3" height="2"/>
  <rect x="34" y="4" width="3" height="2"/>
  <rect x="41" y="4" width="1" height="2"/>
  <rect x="42" y="4" width="1" height="1"/>
  <rect x="0" y="6" width="3" height="2"/>
  <rect x="6" y="6" width="3" height="2"/>
  <rect x="10" y="6" width="3" height="2"/>
  <rect x="17" y="6" width="3" height="2"/>
  <rect x="21" y="6" width="3" height="2"/>
  <rect x="28" y="6" width="3" height="2"/>
  <rect x="34" y="6" width="3" height="2"/>
  <rect x="0" y="8" width="3" height="2"/>
  <rect x="6" y="8" width="3" height="2"/>
  <rect x="10" y="8" width="3" height="2"/>
  <rect x="17" y="8" width="3" height="2"/>
  <rect x="21" y="8" width="3" height="2"/>
  <rect x="28" y="8" width="3" height="2"/>
  <rect x="32" y="8" width="1" height="1"/>
  <rect x="33" y="8" width="11" height="2"/>
  <rect x="0" y="10" width="3" height="2"/>
  <rect x="6" y="10" width="3" height="2"/>
  <rect x="10" y="10" width="3" height="2"/>
  <rect x="17" y="10" width="3" height="2"/>
  <rect x="21" y="10" width="3" height="2"/>
  <rect x="28" y="10" width="3" height="2"/>
  <rect x="41" y="10" width="3" height="2"/>
  <rect x="0" y="12" width="3" height="2"/>
  <rect x="6" y="12" width="3" height="2"/>
  <rect x="10" y="12" width="3" height="2"/>
  <rect x="16" y="13" width="1" height="1"/>
  <rect x="17" y="12" width="3" height="2"/>
  <rect x="21" y="12" width="3" height="2"/>
  <rect x="28" y="12" width="3" height="2"/>
  <rect x="35" y="13" width="1" height="1"/>
  <rect x="36" y="12" width="1" height="2"/>
  <rect x="41" y="12" width="3" height="2"/>
  <rect x="1" y="14" width="1" height="1"/>
  <rect x="2" y="14" width="1" height="2"/>
  <rect x="6" y="14" width="1" height="2"/>
  <rect x="7" y="14" width="1" height="1"/>
  <rect x="10" y="14" width="8" height="2"/>
  <rect x="18" y="14" width="1" height="1"/>
  <rect x="22" y="14" width="1" height="1"/>
  <rect x="23" y="14" width="6" height="2"/>
  <rect x="29" y="14" width="1" height="1"/>
  <rect x="33" y="15" width="1" height="1"/>
  <rect x="34" y="14" width="8" height="2"/>
  <rect x="42" y="14" width="1" height="1"/>
</svg>
